# xmcd CD database file
#
# Track frame offsets:
#	150
#	17012
#	30091
#	57829
#	74874
#	91279
#	107816
#	132133
#	148599
#	171898
#	186696
#	200734
#
# Disc length: 2819 seconds
#
# Revision: 0
# Processed by: cddbd v1.4PL0 Copyright (c) Steve Scherf et al.
# Submitted via: CDex 1.51
#
DISCID=b00b010c
DTITLE=Storyville Jazz Band - JAZZ - Jazz and Blues - CD2
DYEAR=2001
DGENRE=Jazz
TTITLE0=When The Saint's Go Marchin' In (Tradizionale)
TTITLE1=Maple Leaf Rag (S. Joplin)
TTITLE2=Black Groove (Tradizionale)
TTITLE3=Down By The Riverside (Tradizionale)
TTITLE4=Change Rhythm (Tradizionale)
TTITLE5=This Old Hammer (Tradizionale)
TTITLE6=Careless Love (Tradizionale)
TTITLE7=The Entertainer (S. Joplin)
TTITLE8=Old Stomp Blues (Tradizionale)
TTITLE9=West Virginia Blues (Tradizionale)
TTITLE10=Bill Baley (Tradizionale)
TTITLE11=When The Saint's Go Marchin' In (Tradizionale)
EXTD=YEAR: 2001
EXTT0=
EXTT1=
EXTT2=
EXTT3=
EXTT4=
EXTT5=
EXTT6=
EXTT7=
EXTT8=
EXTT9=
EXTT10=
EXTT11=
PLAYORDER=
